<svg width="60" height="60" viewBox="0 0 656 656" fill="none" xmlns="http://www.w3.org/2000/svg">
<path d="M485.063 271.857H141.774C137.048 271.857 132.879 269.355 130.933 265.464C128.987 261.572 129.543 256.569 132.323 252.955L207.374 155.389C210.154 151.775 215.157 149.273 219.883 149.273H410.846C415.571 149.273 420.575 151.775 423.632 155.667L494.514 252.955C497.293 256.569 497.849 261.572 495.626 265.464C493.958 269.355 489.788 271.857 485.063 271.857ZM160.398 251.009H467.273L408.622 170.399H222.662L160.398 251.009Z" fill="white"/>
<path d="M192.63 164.285H29.464C25.0165 164.285 21.125 162.061 18.9012 158.448C16.6775 154.834 16.9555 150.109 18.9012 146.495L98.9557 6.67777C101.179 2.78623 105.071 0.5625 109.518 0.5625C113.688 0.5625 117.579 2.78623 119.803 6.67777L202.915 146.773C205.139 150.665 205.417 155.112 203.193 159.004C201.247 162.061 197.078 164.285 192.63 164.285ZM45.0301 143.437H177.064L109.796 30.027L45.0301 143.437Z" fill="white"/>
<path d="M435.851 541.77H164V265.471H184.848V520.922H435.573V541.77H435.851Z" fill="white"/>
<path d="M438.352 261.576H459.199V531.482H438.352V261.576Z" fill="white"/>
<path d="M446.688 442.805H594.01V463.652H446.688V442.805Z" fill="white"/>
<path d="M475.047 453.098H495.894V526.481H475.047V453.098Z" fill="white"/>
<path d="M510.348 458.1H531.195V531.483H510.348V458.1Z" fill="white"/>
<path d="M546.762 458.1H567.609V531.483H546.762V458.1Z" fill="white"/>
<path d="M583.449 349.412H604.297V532.592H583.449V349.412Z" fill="white"/>
<path d="M616.252 567.336H13.0644C5.8373 567.336 0 561.499 0 554.272V533.98C0 526.753 5.8373 520.916 13.0644 520.916H616.252C623.479 520.916 629.317 526.753 629.317 533.98V554.272C629.317 561.499 623.479 567.336 616.252 567.336ZM20.8475 546.489H608.191V541.764H20.8475V546.489Z" fill="white"/>
<path d="M277.136 338.567H227.936C221.543 338.567 216.262 333.285 216.262 326.892V293.536C216.262 287.143 221.543 281.861 227.936 281.861H277.136C283.53 281.861 288.811 287.143 288.811 293.536V326.892C289.089 333.285 283.808 338.567 277.136 338.567ZM237.109 317.441H267.964V302.431H237.109V317.441Z" fill="white"/>
<path d="M135.64 446.421H86.4402C80.047 446.421 74.7656 441.14 74.7656 434.747V401.669C74.7656 395.275 80.047 389.994 86.4402 389.994H135.64C142.034 389.994 147.315 395.275 147.315 401.669V434.747C147.593 441.14 142.034 446.421 135.64 446.421ZM95.6131 425.574H126.467V410.564H95.6131V425.574Z" fill="white"/>
<path d="M135.64 237.113H86.4402C80.047 237.113 74.7656 231.832 74.7656 225.439V192.083C74.7656 185.69 80.047 180.408 86.4402 180.408H135.64C142.034 180.408 147.315 185.69 147.315 192.083V225.439C147.593 231.832 142.034 237.113 135.64 237.113ZM95.6131 216.266H126.467V201.256H95.6131V216.266Z" fill="white"/>
<path d="M393.05 338.567H343.85C337.457 338.567 332.176 333.285 332.176 326.892V293.536C332.176 287.143 337.457 281.861 343.85 281.861H393.05C399.444 281.861 404.725 287.143 404.725 293.536V326.892C404.725 333.285 399.444 338.567 393.05 338.567ZM353.023 317.441H383.878V302.431H353.023V317.441Z" fill="white"/>
<path d="M361.914 523.975H341.066V409.73C339.12 406.951 331.893 399.724 314.937 398.612C297.981 397.778 289.642 406.673 287.14 409.73V523.697H266.293V408.063C266.293 405.561 267.127 402.781 268.239 400.557C268.795 399.446 282.693 375.818 316.327 377.764C342.734 379.154 356.354 393.052 360.524 400.835C361.636 402.781 362.191 405.839 362.191 408.063L361.914 523.975Z" fill="white"/>
<path d="M656.001 366.648H174.562V345.8H609.58L572.055 303.271H450.861V282.424H581.506L656.001 366.648Z" fill="white"/>
<path d="M41.9766 153.723H62.8241V292.428H41.9766V153.723Z" fill="white"/>
<path d="M164 157.34H184.848V215.435H164V157.34Z" fill="white"/>
<path d="M185.122 373.042H6.94531V282.146H185.122V373.042ZM27.7928 351.916H163.997V302.716H27.7928V351.916Z" fill="white"/>
<path d="M41.9766 362.477H62.8241V531.48H41.9766V362.477Z" fill="white"/>
</svg>
