<?xml version="1.0" encoding="utf-8"?>
<svg version="1.1" xmlns="http://www.w3.org/2000/svg" xmlns:xlink="http://www.w3.org/1999/xlink" viewBox="0 0 256 256" enable-background="new 0 0 256 256" xml:space="preserve">
<g><g><g><path fill="#ffffff" d="M37.5,2.9c-3.3,1-6.8,3.6-8.7,6.3c-2.7,4-3.1,6.1-3.1,17.8v10.5h-6.1c-6.6,0-8.2,0.4-9,2.3C10.1,40.7,10,52.1,10,78.6v37.6h3.9h3.9V80.8V45.4h3.9h3.9l0.1,93.3L26,232l6.3,10.4c9.3,15.3,9,15.3,18.4-0.4l6.5-10.9l-0.1-108.2L57,14.7l-1.3-2.8C52.3,4.8,44.1,0.8,37.5,2.9z M46.3,11.3c2.1,1.5,3,3.9,3,7.4v3.1h-7.9h-7.9l0.2-3.6c0.2-4.2,1.1-5.8,3.9-7.3C39.8,9.7,44.4,9.9,46.3,11.3z M49.3,33.6v3.9h-7.9h-7.9v-3.9v-3.9h7.9h7.9V33.6z M49.3,98.5v53.1h-7.9h-7.9V98.5V45.4h7.9h7.9V98.5z M49.3,187v27.5h-7.9h-7.9V187v-27.5h7.9h7.9V187z M49.3,225.8c0,3.4,0,3.5-3.8,9.8c-2.1,3.5-3.9,6.4-4.1,6.4s-2-2.9-4-6.4c-3.8-6.3-3.8-6.4-3.8-9.8v-3.4h7.9h7.9V225.8z"/><path fill="#ffffff" d="M75.1,2.7c-0.6,0.2-1.3,1-1.6,1.7c-0.8,1.7-0.8,214,0,215.7c0.3,0.7,1.1,1.5,1.8,1.8c0.8,0.4,8.6,0.5,25,0.5h23.8v-3.9v-3.9h-21.6H80.8V112.3V10h62.9h62.9v15.7v15.7h15.7h15.7V128v86.5h-21.6h-21.6v3.9v3.9h23.8c16.4,0,24.2-0.1,25-0.5c0.7-0.3,1.5-1.1,1.8-1.8c0.4-0.8,0.5-26.5,0.5-92.1c0-78.1-0.1-91.2-0.7-92.3c-0.9-1.6-31.6-32.2-33.1-33C210.8,1.9,76.6,2,75.1,2.7z M223.6,24.8l8.9,8.8h-9h-8.9v-8.8c0-4.9,0-8.8,0.1-8.8C214.7,15.9,218.8,19.9,223.6,24.8z"/><path fill="#ffffff" d="M96.5,25.7v3.9h23.6h23.6v-3.9v-3.9h-23.6H96.5V25.7L96.5,25.7z"/><path fill="#ffffff" d="M96.5,53.3v3.9h62.9h62.9v-3.9v-3.9h-62.9H96.5V53.3z"/><path fill="#ffffff" d="M96.5,69v3.9h62.9h62.9V69v-3.9h-62.9H96.5V69z"/><path fill="#ffffff" d="M96.5,84.7v3.9h62.9h62.9v-3.9v-3.9h-62.9H96.5V84.7z"/><path fill="#ffffff" d="M156.3,97c-4.1,1.1-8.1,4-10.5,7.8c-1.2,2-1.9,2.5-4.5,3.4c-2.8,1.1-3.2,1.1-6.6,0.5c-3-0.5-3.9-0.5-6.3,0.2c-5.7,1.7-9.9,5.9-11.6,11.6c-0.7,2.4-0.7,3.2-0.2,6.3c0.5,3.3,0.5,3.8-0.5,6.6c-1,2.6-1.5,3.2-3.4,4.5c-2.8,1.8-5.4,4.6-6.8,7.7c-1.7,3.4-1.6,8.8,0.1,12.1c1.8,3.4,3.6,5.5,6.5,7.4c2.1,1.4,2.6,2,3.6,4.6c1.1,2.8,1.1,3.3,0.6,6.1c-1,5.3,0.5,10.1,4.4,14c3.9,3.9,8.6,5.4,13.8,4.5c3.1-0.6,3.6-0.5,6.4,0.5c2.6,1,3.3,1.5,4.6,3.6c1.9,3,3.9,4.8,7.4,6.5c3.6,1.8,8.8,1.8,12.4,0c3.4-1.8,5.5-3.6,7.4-6.5c1.4-2.1,2-2.6,4.6-3.6c2.8-1.1,3.3-1.1,6.1-0.6c5.3,1,10.1-0.5,14-4.4c3.9-3.9,5.4-8.7,4.4-14c-0.5-2.9-0.5-3.3,0.6-6.1c1-2.6,1.5-3.2,3.6-4.6c3-1.9,4.8-3.9,6.5-7.4c1.8-3.6,1.8-8.8,0-12.4c-1.8-3.4-3.6-5.5-6.5-7.4c-2.1-1.3-2.6-2-3.6-4.6c-1.1-2.8-1.1-3.2-0.5-6.4c0.9-5.2-0.6-9.9-4.5-13.8c-3.9-3.9-8.7-5.4-14-4.4c-2.9,0.5-3.3,0.5-6.1-0.6c-2.6-1-3.2-1.5-4.6-3.6C169.3,98.8,162,95.5,156.3,97z M163.1,105.1c2,0.8,3,2.3,4,5.6c0.7,2.5,0.8,2.6,3.1,3.1c1.4,0.3,4.3,1.5,6.6,2.7l4.1,2.1l1.9-1.2c3.4-2.1,8.4-1.2,10.7,1.9c0.6,0.9,1,2.4,1.1,4.2c0.1,2.4,0,3.2-0.9,4.7l-1.2,1.9l1.9,3.8c1,2.1,2.2,5,2.7,6.6c0.7,2.4,1,2.9,2.1,3.1c2.4,0.5,5.4,2.1,6.2,3.4c1.3,1.9,1.4,6.4,0.3,8.6c-0.9,1.7-3.9,3.6-6.6,4.2c-1.1,0.2-1.4,0.6-1.9,2.7c-0.3,1.3-1.5,4.3-2.7,6.6l-2.1,4.1l1.2,1.9c1,1.5,1.1,2.4,1,4.7c-0.1,1.8-0.5,3.3-1.1,4.2c-2.3,3.1-7.2,4-10.7,1.9l-1.9-1.2l-4.1,2.1c-2.3,1.1-5.3,2.3-6.6,2.7c-2.1,0.5-2.5,0.8-2.8,1.9c-0.5,2.4-2.1,5.4-3.4,6.2c-1.9,1.3-6.4,1.4-8.6,0.3c-1.7-0.9-3.6-3.9-4.1-6.6c-0.2-1-0.7-1.4-3.1-2.1c-1.6-0.4-4.5-1.6-6.6-2.7l-3.8-1.9l-1.9,1.1c-3.4,2.1-8.4,1.2-10.7-1.9c-0.6-0.9-1-2.4-1.1-4.2c-0.1-2.4,0-3.2,1-4.7l1.2-1.9l-2.1-4.1c-1.1-2.3-2.3-5.2-2.7-6.6c-0.6-2.4-0.6-2.4-3.1-3.1c-3.3-1-5-2.3-5.7-4.5c-0.7-2.3-0.4-6.1,0.7-7.8c0.8-1.3,3.8-2.9,6.2-3.4c1-0.2,1.4-0.7,2.1-3.1c0.4-1.6,1.6-4.5,2.7-6.6l1.9-3.8l-1.2-1.9c-0.9-1.5-1.1-2.4-0.9-4.7c0.1-1.8,0.5-3.3,1.1-4.2c2.3-3.1,7.2-4,10.7-1.9l1.9,1.1l3.8-1.9c2.1-1,5-2.2,6.6-2.7c2.4-0.7,2.9-1,3.1-2.1c0.5-2.8,2.4-5.7,4.1-6.5C157.6,104.2,160.9,104.2,163.1,105.1z"/><path fill="#ffffff" d="M154.8,124.6c-10.3,2.2-18.2,9.4-21.7,19.7c-1.2,3.7-1.2,11.1,0,14.8c3.1,9.2,9.7,15.9,19,19c4,1.3,11.1,1.2,15.3-0.2c8.5-2.9,15.3-9.7,18.2-18.1c1.5-4.3,1.6-11.4,0.2-15.4c-2.2-6.6-7.1-12.9-12.3-16C167.9,125,160.1,123.4,154.8,124.6z M165.9,132.9c10.1,3.1,15.7,14.6,12.2,25.2c-5.8,17.6-31.9,17.5-37.3,0c-2.6-8.4,0.1-17.5,6.8-22.4C152.4,132.1,159.8,131,165.9,132.9z"/><path fill="#ffffff" d="M131.9,226.6c0,16.6,0.1,24.2,0.5,25c0.8,1.6,3,2.6,4.6,1.9c0.6-0.3,5.9-4.4,11.6-9.1c5.7-4.8,10.6-8.7,10.8-8.7c0.2,0,5.2,4,11,8.8c5.8,4.9,11.1,8.9,11.7,9.1c1.5,0.4,3.7-0.5,4.4-2c0.4-0.8,0.5-8.4,0.5-25v-23.8h-3.9h-3.9v19.4v19.4l-8.8-7.3c-4.8-4-9.2-7.5-9.8-7.7c-0.6-0.1-1.5-0.1-2.1,0c-0.6,0.2-5,3.6-9.8,7.7l-8.8,7.3v-19.4v-19.4h-3.9h-3.9V226.6L131.9,226.6z"/></g></g></g>
</svg>