<svg width="158" height="41" viewBox="0 0 158 41" fill="none" xmlns="http://www.w3.org/2000/svg">
<g clip-path="url(#clip0_1348_785)">
<path fill-rule="evenodd" clip-rule="evenodd" d="M0 0H158V41H0V0Z" fill="black"/>
<path d="M44.2884 34.5409H45.5584C45.9525 34.5677 46.3457 34.4773 46.6884 34.2809C46.8116 34.1829 46.9082 34.0556 46.9693 33.9106C47.0305 33.7656 47.0542 33.6075 47.0384 33.4509C47.0503 33.2957 47.0257 33.1398 46.9667 32.9957C46.9077 32.8516 46.8158 32.7232 46.6984 32.6209C46.3431 32.4202 45.9348 32.3329 45.5284 32.3709H44.2884V34.5409ZM44.2884 37.2809C44.2631 37.4726 44.3056 37.6672 44.4084 37.8309C44.5921 37.9292 44.8019 37.9676 45.0084 37.9409H45.5184V38.7609H41.6484V37.9409H42.0684C42.3884 37.9409 42.5884 37.9409 42.6584 37.8309C42.7284 37.7209 42.7784 37.5709 42.7784 37.2809V33.0009C42.8044 32.806 42.762 32.6081 42.6584 32.4409C42.4777 32.3447 42.2717 32.3063 42.0684 32.3309H41.6484V31.5109H45.9984C46.698 31.4823 47.3914 31.6521 47.9984 32.0009C48.2116 32.1412 48.384 32.3353 48.4981 32.5636C48.6122 32.7919 48.6641 33.0462 48.6484 33.3009C48.6604 33.5334 48.6199 33.7656 48.5299 33.9802C48.4399 34.1949 48.3027 34.3865 48.1284 34.5409C47.6872 34.8899 47.1499 35.0958 46.5884 35.1309C46.986 35.1594 47.3642 35.3135 47.6684 35.5709C47.893 35.893 48.0086 36.2784 47.9984 36.6709V37.3109C47.9908 37.4822 48.0215 37.653 48.0884 37.8109C48.1125 37.8467 48.1454 37.8756 48.184 37.8948C48.2225 37.9141 48.2654 37.9231 48.3084 37.9209C48.5184 37.9209 48.6284 37.5309 48.6484 36.7409H49.3284C49.3334 36.7875 49.3334 36.8344 49.3284 36.8809C49.3344 36.9541 49.3344 37.0277 49.3284 37.1009C49.3711 37.5972 49.2555 38.0943 48.9984 38.5209C48.8635 38.6792 48.6944 38.8046 48.5038 38.8878C48.3132 38.9709 48.1062 39.0096 47.8984 39.0009C47.7167 39.0136 47.5343 38.9891 47.3624 38.9289C47.1904 38.8688 47.0326 38.7742 46.8984 38.6509C46.7688 38.52 46.668 38.3634 46.6026 38.1911C46.5371 38.0189 46.5085 37.8349 46.5184 37.6509V36.8009C46.5447 36.386 46.4084 35.9771 46.1384 35.6609C45.7522 35.4151 45.2933 35.3092 44.8384 35.3609H44.3184V37.2809H44.2884ZM55.7984 38.7609V37.9409H56.2184C56.5384 37.9409 56.7284 37.9409 56.8084 37.8309C56.8884 37.7209 56.9284 37.5709 56.9284 37.2709V33.0009C56.9537 32.8092 56.9113 32.6147 56.8084 32.4509C56.6277 32.3547 56.4217 32.3163 56.2184 32.3409H55.7984V31.5209H62.8884V34.3909H62.0684C62.1138 33.8156 61.9736 33.2408 61.6684 32.7509C61.2417 32.4226 60.7029 32.2753 60.1684 32.3409H58.4384V34.5509H58.8484C59.1634 34.5881 59.4809 34.506 59.7384 34.3209C59.9171 34.0003 60.0069 33.6378 59.9984 33.2709H60.8084V36.8809H59.9984C60.0125 36.4656 59.9231 36.0532 59.7384 35.6809C59.6207 35.5739 59.4808 35.4941 59.3286 35.4475C59.1765 35.4008 59.016 35.3883 58.8584 35.4109H58.4384V37.9409H60.3284C60.5619 37.9698 60.7989 37.9462 61.0221 37.8718C61.2452 37.7974 61.449 37.6741 61.6184 37.5109C61.93 36.9633 62.0856 36.3408 62.0684 35.7109H62.8884V38.7109L55.7984 38.7609ZM73.9984 35.6109L73.0684 33.1209L72.2184 35.6109H73.9984ZM69.3084 38.7609V37.9409H69.5284C69.7446 37.9594 69.9612 37.9105 70.1484 37.8009C70.3129 37.6546 70.4311 37.4635 70.4884 37.2509L72.4884 31.5509H73.9984L76.1484 37.2509C76.2091 37.4736 76.3262 37.6768 76.4884 37.8409C76.6526 37.9222 76.8359 37.9568 77.0184 37.9409H77.2384V38.7609H73.5584V37.9409H74.1384C74.3008 37.9524 74.4639 37.932 74.6184 37.8809C74.6585 37.8608 74.6914 37.829 74.7128 37.7897C74.7343 37.7504 74.7432 37.7054 74.7384 37.6609C74.7418 37.6177 74.7418 37.5742 74.7384 37.5309L74.6684 37.3109L74.3584 36.4609H71.9984L71.6884 37.3709C71.6859 37.4075 71.6859 37.4443 71.6884 37.4809C71.6558 37.5502 71.6355 37.6247 71.6284 37.7009C71.6253 37.7388 71.6331 37.7768 71.6508 37.8105C71.6685 37.8441 71.6954 37.872 71.7284 37.8909C71.8869 37.9222 72.05 37.9222 72.2084 37.8909H72.7684V38.7109L69.3084 38.7609ZM83.3084 31.5509H87.1684V32.3709H86.6684C86.4619 32.3442 86.2521 32.3827 86.0684 32.4809C85.9921 32.6429 85.9677 32.8245 85.9984 33.0009V37.9009H87.3384C87.7024 37.9152 88.0665 37.8747 88.4184 37.7809C88.5263 37.7497 88.6269 37.6973 88.7145 37.627C88.802 37.5566 88.8747 37.4696 88.9284 37.3709C89.0437 37.1592 89.1216 36.9292 89.1584 36.6909C89.2108 36.3771 89.2343 36.0591 89.2284 35.7409V35.6109H89.9984V38.7209H83.2984V37.9009H83.7184C83.9217 37.9255 84.1277 37.8871 84.3084 37.7909C84.3884 37.7209 84.4184 37.5309 84.4184 37.2409V33.0009C84.4184 32.7009 84.4184 32.5209 84.3084 32.4409C84.1277 32.3447 83.9217 32.3063 83.7184 32.3309H83.2984V31.5109L83.3084 31.5509ZM98.1484 32.3509H97.9984C97.7646 32.3307 97.5292 32.3664 97.3119 32.4551C97.0946 32.5438 96.9014 32.6829 96.7484 32.8609C96.4447 33.3664 96.3017 33.9523 96.3384 34.5409H95.5084V31.5409H102.298V34.5409H101.468C101.511 33.9563 101.372 33.3727 101.068 32.8709C100.917 32.6883 100.722 32.5455 100.503 32.4549C100.283 32.3642 100.045 32.3286 99.8084 32.3509H99.6584V37.2809C99.6331 37.4726 99.6756 37.6672 99.7784 37.8309C99.8484 37.9109 100.048 37.9409 100.368 37.9409H100.998V38.7609H96.8384V37.9409H97.4684C97.6717 37.9655 97.8777 37.9271 98.0584 37.8309C98.1384 37.7609 98.1684 37.5709 98.1684 37.2809V32.3509H98.1484ZM113.148 37.2809C113.148 37.5709 113.148 37.7509 113.258 37.8309C113.368 37.9109 113.538 37.9409 113.858 37.9409H114.488V38.7609H110.298V37.9409H110.918C111.238 37.9409 111.438 37.9409 111.518 37.8309C111.613 37.6642 111.652 37.4713 111.628 37.2809V35.7509L109.848 33.1109C109.708 32.8902 109.533 32.6942 109.328 32.5309C109.177 32.4234 108.994 32.3673 108.808 32.3709H108.448V31.5509H112.258V32.3709H111.738C111.615 32.3643 111.493 32.3848 111.378 32.4309C111.345 32.445 111.317 32.4687 111.297 32.499C111.278 32.5293 111.268 32.5648 111.268 32.6009C111.256 32.6502 111.256 32.7017 111.268 32.7509C111.295 32.8224 111.333 32.8898 111.378 32.9509L112.588 34.6409L113.878 32.8909C113.919 32.8337 113.956 32.7735 113.988 32.7109C113.998 32.6614 113.998 32.6105 113.988 32.5609C113.987 32.5305 113.977 32.5011 113.959 32.4763C113.941 32.4515 113.917 32.4323 113.888 32.4209C113.796 32.3845 113.698 32.3674 113.598 32.3709H112.998V31.5509H116.338V32.3709H116.088C115.929 32.3629 115.77 32.3974 115.628 32.4709C115.476 32.5661 115.35 32.6965 115.258 32.8509L113.108 35.7509V37.2809H113.148Z" fill="white"/>
<path d="M19.6797 12.8008H27.4097V14.4308H26.4097C25.7597 14.4308 25.4097 14.5008 25.2097 14.6608C25.0024 14.9876 24.9174 15.3773 24.9697 15.7608V25.5708H27.6597C28.3849 25.5964 29.1097 25.5121 29.8097 25.3208C30.2326 25.1799 30.5887 24.8879 30.8097 24.5008C31.0352 24.076 31.1873 23.6162 31.2597 23.1408C31.3678 22.51 31.4181 21.8707 31.4097 21.2308V21.0008H33.0597V27.2008H19.6797V25.5708H20.5197C20.9306 25.619 21.3464 25.5387 21.7097 25.3408C21.9024 25.0085 21.9798 24.6217 21.9297 24.2408V15.7608C21.9813 15.3766 21.9039 14.9862 21.7097 14.6508C21.3453 14.4563 20.9296 14.3795 20.5197 14.4308H19.6797V12.8008Z" fill="url(#paint0_linear_1348_785)"/>
<path d="M35.4586 15.7608C35.508 15.3755 35.427 14.9847 35.2286 14.6508C34.8526 14.448 34.4216 14.3709 33.9986 14.4308H33.3086V12.8008H40.7986V14.4308H39.8786C39.4642 14.3747 39.0429 14.4555 38.6786 14.6608C38.4713 14.9876 38.3863 15.3773 38.4386 15.7608V22.6508C38.4014 23.0434 38.4452 23.4395 38.5673 23.8145C38.6894 24.1895 38.8873 24.5354 39.1486 24.8308C39.8034 25.3361 40.6249 25.5754 41.4486 25.5008C42.2665 25.5602 43.0758 25.3023 43.7086 24.7808C43.9785 24.4995 44.1858 24.1643 44.3168 23.7972C44.4478 23.4301 44.4995 23.0394 44.4686 22.6508V15.7608C44.4686 15.1708 44.3986 14.7608 44.2386 14.6508C43.8786 14.4539 43.4653 14.3768 43.0586 14.4308H42.2186V12.8008H48.8086V14.4308H48.1386C47.7287 14.3795 47.313 14.4563 46.9486 14.6508C46.7544 14.9862 46.677 15.3766 46.7286 15.7608V22.6508C46.774 23.3371 46.6667 24.025 46.4142 24.6648C46.1617 25.3046 45.7705 25.8804 45.2686 26.3508C44.0615 27.2784 42.5574 27.7335 41.0386 27.6308C39.5334 27.7358 38.0422 27.2838 36.8486 26.3608C36.3519 25.8857 35.9662 25.3069 35.719 24.6656C35.4718 24.0243 35.3693 23.3363 35.4186 22.6508V15.7608H35.4586Z" fill="url(#paint1_linear_1348_785)"/>
<path d="M57.8786 23.92C57.6952 24.1243 57.5311 24.3453 57.3886 24.58C57.2931 24.7198 57.2346 24.8815 57.2186 25.05C57.2096 25.1289 57.2238 25.2087 57.2593 25.2797C57.2948 25.3507 57.3501 25.4098 57.4186 25.45C57.6761 25.5507 57.953 25.5917 58.2286 25.57H59.2286V27.2H51.7286V25.57H52.4486C52.7917 25.5792 53.1328 25.5144 53.4486 25.38C53.8281 25.1519 54.1662 24.8611 54.4486 24.52L58.5686 19.85L44.3086 2H47.8586L60.5486 17.82L62.8386 15.42C62.9394 15.3282 63.0239 15.22 63.0886 15.1C63.1414 15.012 63.1723 14.9125 63.1786 14.81C63.176 14.7446 63.1522 14.6819 63.1106 14.6314C63.0691 14.5808 63.0122 14.5452 62.9486 14.53C62.7208 14.4504 62.4795 14.4165 62.2386 14.43H61.3986V12.8H68.1586V14.43H67.3786C66.8286 14.43 66.0786 14.95 65.1286 16L61.9386 19.5L65.5786 24.05C65.9365 24.5533 66.3798 24.9899 66.8886 25.34C67.2888 25.5128 67.7232 25.5915 68.1586 25.57H68.7986V27.2H60.5486V25.57H61.5486C61.8052 25.5823 62.062 25.5519 62.3086 25.48C62.3774 25.466 62.4391 25.4283 62.4829 25.3735C62.5268 25.3186 62.55 25.2502 62.5486 25.18C62.5473 25.0674 62.527 24.9558 62.4886 24.85C62.449 24.728 62.3842 24.6155 62.2986 24.52L59.9586 21.52L57.8986 23.89L57.8786 23.92Z" fill="url(#paint2_linear_1348_785)"/>
<path d="M77.6081 18.7601H80.1481C80.9306 18.8222 81.7131 18.6406 82.3881 18.2401C82.6358 18.0488 82.8315 17.7984 82.9572 17.5119C83.083 17.2253 83.1349 16.9118 83.1081 16.6001C83.1335 16.2879 83.0851 15.9742 82.967 15.6841C82.8489 15.394 82.6643 15.1357 82.4281 14.9301C81.711 14.5359 80.8936 14.362 80.0781 14.4301H77.6081V18.7601ZM77.6081 24.2301C77.5558 24.6136 77.6408 25.0032 77.8481 25.3301C78.2107 25.5402 78.6326 25.6246 79.0481 25.5701H80.0481V27.2001H72.3281V25.5701H73.1681C73.579 25.6183 73.9948 25.538 74.3581 25.3401C74.5565 25.0061 74.6375 24.6154 74.5881 24.2301V15.7601C74.6375 15.3748 74.5565 14.984 74.3581 14.6501C73.9937 14.4556 73.578 14.3788 73.1681 14.4301H72.3281V12.8001H80.9281C82.3145 12.7069 83.6994 13.0012 84.9281 13.6501C85.3586 13.9296 85.7068 14.3187 85.937 14.7774C86.1673 15.2361 86.2712 15.7479 86.2381 16.2601C86.2628 16.7199 86.186 17.1796 86.0131 17.6064C85.8403 18.0333 85.5757 18.4169 85.2381 18.7301C84.3545 19.4245 83.28 19.8327 82.1581 19.9001C82.9532 19.957 83.7096 20.2652 84.3181 20.7801C84.7778 21.4276 85.0162 22.2062 84.9981 23.0001L85.0881 24.2901C85.0825 24.6329 85.1472 24.9732 85.2781 25.2901C85.3252 25.3657 85.3919 25.427 85.4712 25.4676C85.5505 25.5081 85.6393 25.5262 85.7281 25.5201C86.1381 25.5201 86.3581 24.7401 86.3881 23.1601V23.1001H87.7481C87.7585 23.1965 87.7585 23.2937 87.7481 23.3901C87.7481 23.4901 87.7481 23.6301 87.7481 23.8201C87.8315 24.8363 87.5785 25.8517 87.0281 26.7101C86.6626 27.1558 86.1692 27.4789 85.6145 27.6356C85.0597 27.7924 84.4702 27.7754 83.9254 27.5869C83.3806 27.3984 82.9067 27.0475 82.5675 26.5814C82.2282 26.1153 82.04 25.5564 82.0281 24.9801L81.9981 23.2901C82.0298 22.877 81.9789 22.4618 81.8484 22.0686C81.718 21.6755 81.5105 21.3122 81.2381 21.0001C80.4669 20.5049 79.5491 20.2895 78.6381 20.3901H77.6381V24.2301H77.6081Z" fill="url(#paint3_linear_1348_785)"/>
<path d="M92.5918 20.0007C92.4974 21.5421 92.9235 23.0705 93.8018 24.3407C94.2101 24.8282 94.7203 25.2203 95.2965 25.4893C95.8727 25.7584 96.5009 25.8978 97.1368 25.8978C97.7727 25.8978 98.4009 25.7584 98.9771 25.4893C99.5533 25.2203 100.064 24.8282 100.472 24.3407C101.341 23.0629 101.763 21.5334 101.672 19.9907C101.765 18.4508 101.343 16.9238 100.472 15.6507C100.061 15.1677 99.5495 14.7798 98.9736 14.5138C98.3978 14.2478 97.7711 14.1101 97.1368 14.1101C96.5025 14.1101 95.8758 14.2478 95.3 14.5138C94.7242 14.7798 94.213 15.1677 93.8018 15.6507C92.9199 16.9229 92.4935 18.4558 92.5918 20.0007ZM89.2018 20.0007C89.1586 18.9799 89.3313 17.9614 89.7087 17.0119C90.0861 16.0624 90.6596 15.2033 91.3918 14.4907C93.0017 13.1405 95.0357 12.4004 97.1368 12.4004C99.238 12.4004 101.272 13.1405 102.882 14.4907C103.611 15.2053 104.181 16.065 104.557 17.0142C104.932 17.9634 105.104 18.9808 105.062 20.0007C105.103 21.0219 104.931 22.0405 104.555 22.9912C104.18 23.9418 103.61 24.8034 102.882 25.5207C101.274 26.8746 99.239 27.6171 97.1368 27.6171C95.0346 27.6171 93 26.8746 91.3918 25.5207C90.6599 24.8058 90.0866 23.9448 89.7093 22.9938C89.3319 22.0427 89.159 21.0229 89.2018 20.0007Z" fill="url(#paint4_linear_1348_785)"/>
<path d="M118.129 21.6197H119.999C119.966 23.2633 119.341 24.8398 118.239 26.0597C117.677 26.5973 117.011 27.0139 116.282 27.284C115.553 27.554 114.776 27.6717 113.999 27.6297C113.023 27.6428 112.053 27.4733 111.139 27.1297C110.28 26.7954 109.502 26.2805 108.859 25.6197C108.124 24.9029 107.551 24.0368 107.179 23.0797C106.419 21.1002 106.419 18.9093 107.179 16.9297C107.563 15.9901 108.131 15.1367 108.849 14.4197C109.502 13.7592 110.281 13.2372 111.14 12.8849C111.999 12.5327 112.921 12.3574 113.849 12.3697C114.588 12.3648 115.322 12.4866 116.019 12.7297C116.741 12.9942 117.417 13.3723 118.019 13.8497L118.449 12.5597H119.999V18.4597H118.349C118.261 17.2798 117.799 16.1588 117.029 15.2597C116.671 14.8872 116.238 14.594 115.759 14.3994C115.28 14.2047 114.766 14.1129 114.249 14.1297C113.641 14.1078 113.037 14.2413 112.494 14.5178C111.952 14.7943 111.489 15.2045 111.149 15.7097C110.32 17.0145 109.918 18.5457 109.999 20.0897C109.912 21.5455 110.305 22.9896 111.119 24.1997C111.489 24.6772 111.968 25.0583 112.517 25.3107C113.065 25.5632 113.666 25.6795 114.269 25.6497C114.744 25.6731 115.218 25.5961 115.661 25.4238C116.104 25.2515 116.505 24.9877 116.839 24.6497C117.564 23.8026 118.016 22.7574 118.139 21.6497L118.129 21.6197Z" fill="url(#paint5_linear_1348_785)"/>
<path d="M126.73 22.2608V24.2608C126.681 24.6429 126.762 25.0302 126.96 25.3608C127.323 25.5587 127.739 25.639 128.15 25.5908H128.73V27.2008H121.52V25.5708H122.35C122.761 25.6239 123.178 25.5432 123.54 25.3408C123.737 25.0102 123.818 24.6229 123.77 24.2408V15.7608C123.819 15.3755 123.738 14.9847 123.54 14.6508C123.175 14.4563 122.759 14.3795 122.35 14.4308H121.52V12.8008H128.83V14.4308H128.15C127.74 14.3795 127.324 14.4563 126.96 14.6508C126.761 14.9847 126.68 15.3755 126.73 15.7608V19.7608L131.59 15.2208C131.685 15.1157 131.775 15.0055 131.86 14.8908C131.906 14.8227 131.934 14.7432 131.94 14.6608C131.94 14.5608 131.87 14.4908 131.74 14.4508C131.528 14.3933 131.309 14.3697 131.09 14.3808H130.09V12.8008H137.35V14.4308H136.85C136.27 14.4348 135.701 14.5789 135.19 14.8508C134.463 15.2652 133.791 15.7691 133.19 16.3508L131.1 18.2708L135.46 24.4708C135.682 24.8204 135.975 25.12 136.32 25.3508C136.7 25.5187 137.114 25.5941 137.53 25.5708H138.26V27.2008H130.26V25.5708H131.41C131.656 25.5905 131.905 25.5599 132.14 25.4808C132.196 25.4556 132.243 25.4128 132.274 25.3588C132.305 25.3048 132.317 25.2424 132.31 25.1808C132.308 25.0812 132.288 24.9828 132.25 24.8908C132.184 24.7348 132.1 24.5871 132 24.4508L129 20.2008L126.63 22.2608H126.73Z" fill="url(#paint6_linear_1348_785)"/>
<path fill-rule="evenodd" clip-rule="evenodd" d="M44.3094 2L46.0894 4.22L42.6694 7.84C42.883 8.08037 43.1327 8.28615 43.4094 8.45C43.758 8.61885 44.1422 8.70117 44.5294 8.69H45.2694V10.32L37.1094 10.39V8.76H38.1094C38.2701 8.76815 38.4297 8.72997 38.5694 8.65C38.6184 8.6128 38.6577 8.56424 38.6838 8.5085C38.71 8.45276 38.7222 8.3915 38.7194 8.33C38.72 8.22588 38.696 8.12308 38.6494 8.03C38.4394 7.63 43.6494 2.75 44.3194 2.03L44.3094 2Z" fill="#D09E47"/>
<path fill-rule="evenodd" clip-rule="evenodd" d="M49.0117 17.4707H50.9917V19.3907H49.0117V17.4707Z" fill="white"/>
<path fill-rule="evenodd" clip-rule="evenodd" d="M52.7109 17.4707H54.6909V19.3907H52.7109V17.4707Z" fill="white"/>
<path fill-rule="evenodd" clip-rule="evenodd" d="M49.0117 20.6992H50.9917V22.6192H49.0117V20.6992Z" fill="white"/>
<path fill-rule="evenodd" clip-rule="evenodd" d="M52.7109 20.6992H54.6909V22.6192H52.7109V20.6992Z" fill="white"/>
</g>
<defs>
<linearGradient id="paint0_linear_1348_785" x1="37.4823" y1="27.9841" x2="37.4823" y2="43.4284" gradientUnits="userSpaceOnUse">
<stop stop-color="#A96F31"/>
<stop offset="0.58" stop-color="#FBD261"/>
<stop offset="1" stop-color="#C58F45"/>
</linearGradient>
<linearGradient id="paint1_linear_1348_785" x1="53.0593" y1="28.0318" x2="53.0593" y2="43.9366" gradientUnits="userSpaceOnUse">
<stop stop-color="#A96F31"/>
<stop offset="0.58" stop-color="#FBD261"/>
<stop offset="1" stop-color="#C58F45"/>
</linearGradient>
<linearGradient id="paint2_linear_1348_785" x1="69.4123" y1="17.7947" x2="69.4126" y2="44.7935" gradientUnits="userSpaceOnUse">
<stop stop-color="#A96F31"/>
<stop offset="0.58" stop-color="#FBD261"/>
<stop offset="1" stop-color="#C58F45"/>
</linearGradient>
<linearGradient id="paint3_linear_1348_785" x1="94.2872" y1="28.0317" x2="94.2872" y2="43.9362" gradientUnits="userSpaceOnUse">
<stop stop-color="#A96F31"/>
<stop offset="0.58" stop-color="#FBD261"/>
<stop offset="1" stop-color="#C58F45"/>
</linearGradient>
<linearGradient id="paint4_linear_1348_785" x1="112.34" y1="27.6444" x2="112.34" y2="43.9635" gradientUnits="userSpaceOnUse">
<stop stop-color="#A96F31"/>
<stop offset="0.58" stop-color="#FBD261"/>
<stop offset="1" stop-color="#C58F45"/>
</linearGradient>
<linearGradient id="paint5_linear_1348_785" x1="129.433" y1="27.6251" x2="129.433" y2="43.9901" gradientUnits="userSpaceOnUse">
<stop stop-color="#A96F31"/>
<stop offset="0.58" stop-color="#FBD261"/>
<stop offset="1" stop-color="#C58F45"/>
</linearGradient>
<linearGradient id="paint6_linear_1348_785" x1="147.028" y1="27.9841" x2="147.028" y2="43.4284" gradientUnits="userSpaceOnUse">
<stop stop-color="#A96F31"/>
<stop offset="0.58" stop-color="#FBD261"/>
<stop offset="1" stop-color="#C58F45"/>
</linearGradient>
<clipPath id="clip0_1348_785">
<rect width="158" height="41" fill="white"/>
</clipPath>
</defs>
</svg>
