<svg width="158" height="41" viewBox="0 0 158 41" fill="none" xmlns="http://www.w3.org/2000/svg">
<g clip-path="url(#clip0_1276_715)">
<path d="M158 0H0V41H158V0Z" fill="black"/>
<path d="M29 3.50608H38.4086V5.72835H37.3959C36.7522 5.72835 36.34 5.81482 36.1594 5.98766C35.9868 6.15221 35.9004 6.55554 35.9004 7.19745V18.2469H37.1722C38.3968 18.2469 39.2447 18.1852 39.7157 18.0617C40.1867 17.9383 40.5713 17.7283 40.8697 17.4321C41.2072 17.1028 41.4663 16.6419 41.6468 16.0494C41.8352 15.4485 41.9687 14.6132 42.0472 13.5432H44.1668V20.4691H29V18.2469H29.8949C30.523 18.2469 30.9233 18.1646 31.096 18C31.2766 17.8354 31.3669 17.428 31.3669 16.7778V7.19745C31.3669 6.53905 31.2766 6.13168 31.096 5.97522C30.9233 5.81067 30.523 5.72835 29.8949 5.72835H29V3.50608ZM43.9313 5.64198V3.50608H53.0927V5.65432C52.9906 5.64602 52.8806 5.64198 52.7629 5.64198C52.6452 5.63368 52.4843 5.62954 52.2801 5.62954C51.6207 5.62954 51.1811 5.75717 50.9613 6.01234C50.7414 6.2674 50.6316 6.97526 50.6316 8.13579V14.9259C50.6316 16.2181 50.8435 17.1316 51.2674 17.6667C51.6992 18.2017 52.4135 18.4692 53.4105 18.4692C54.6038 18.4692 55.4556 18.214 55.9659 17.7037C56.4761 17.1934 56.7312 16.3374 56.7312 15.1358V8.25918C56.7312 7.10693 56.6174 6.3827 56.3897 6.08637C56.17 5.78185 55.7147 5.62954 55.0238 5.62954C54.8589 5.62954 54.7294 5.63368 54.6352 5.64198C54.5489 5.64198 54.4704 5.64602 54.3997 5.65432V3.50608H61.6063V5.65432C60.994 5.65432 60.5269 5.68719 60.205 5.75303C59.8831 5.81067 59.6673 5.91353 59.5573 6.06169C59.4867 6.14402 59.4357 6.31271 59.4043 6.56788C59.3807 6.82305 59.3689 7.39507 59.3689 8.28396V15.4567C59.3689 17.2675 58.792 18.6461 57.638 19.5926C56.484 20.5308 54.8001 21 52.5863 21C50.5608 21 48.983 20.535 47.8525 19.6049C46.7299 18.6667 46.1686 17.3539 46.1686 15.6667V8.20982C46.1686 7.15639 46.0587 6.46502 45.8389 6.13572C45.627 5.79833 45.2227 5.62954 44.626 5.62954C44.4534 5.62954 44.316 5.63368 44.2139 5.64198C44.1119 5.64198 44.0176 5.64198 43.9313 5.64198ZM62.3952 20.4691V18.2963H62.725C63.2901 18.2963 63.7573 18.1975 64.1262 18C64.4952 17.8025 64.8799 17.4362 65.2802 16.9013L68.8247 12.2716L65.0447 6.98759C64.7072 6.51023 64.3618 6.17284 64.0085 5.97522C63.6631 5.76951 63.2548 5.66251 62.7838 5.65432L62.772 3.50608H71.3093V5.65432C71.2622 5.65432 71.1954 5.65017 71.1091 5.64198C71.0228 5.63368 70.9639 5.62954 70.9325 5.62954C70.5714 5.62954 70.2927 5.67899 70.0964 5.7777C69.908 5.87651 69.8138 6.02053 69.8138 6.20986C69.8138 6.30857 69.8335 6.41152 69.8727 6.51853C69.9198 6.62543 70.0061 6.77359 70.1317 6.96292L71.7685 9.37036L73.6762 6.98759C73.8174 6.82305 73.9117 6.69137 73.9588 6.59256C74.0137 6.48555 74.0412 6.37441 74.0412 6.25921C74.0412 6.06169 73.9274 5.91353 73.6998 5.81482C73.4799 5.70782 73.1502 5.65432 72.7106 5.65432H72.5457V3.50608H79.6346V5.65432H79.5404C78.9908 5.65432 78.5238 5.75303 78.1391 5.95054C77.7545 6.13987 77.3776 6.46907 77.0086 6.93824L73.582 11.321L77.4679 16.8024C77.8839 17.4033 78.2489 17.8107 78.563 18.0247C78.877 18.2387 79.242 18.3457 79.6581 18.3457C79.7523 18.3457 79.9054 18.3333 80.1174 18.3087C80.1487 18.3004 80.1724 18.2963 80.188 18.2963V20.4691H71.1444V18.2963H71.4153C71.9177 18.2963 72.2749 18.2469 72.4868 18.1482C72.6988 18.0494 72.8048 17.8889 72.8048 17.6667C72.8048 17.4609 72.6949 17.2181 72.475 16.9383C72.4122 16.8641 72.3612 16.7983 72.3219 16.7408L70.591 14.2716L68.754 16.679C68.5656 16.9506 68.4361 17.1646 68.3654 17.321C68.3027 17.4691 68.2712 17.6173 68.2712 17.7655C68.2712 17.9465 68.3654 18.0864 68.5538 18.1852C68.7501 18.2757 69.0287 18.321 69.3899 18.321C69.5155 18.321 69.6097 18.321 69.6725 18.321C69.7432 18.3127 69.806 18.3045 69.8609 18.2963L69.8727 20.4691H62.3952ZM87.8772 10.5061H89.5846C90.8097 10.5061 91.6412 10.3416 92.0811 10.0123C92.521 9.67488 92.7409 9.07403 92.7409 8.20982C92.7409 7.30445 92.521 6.66659 92.0811 6.29623C91.6412 5.91767 90.8724 5.72835 89.7737 5.72835H87.8772V10.5061ZM87.8772 16.7778C87.8772 17.4198 87.964 17.8272 88.1367 18C88.3171 18.1646 88.729 18.2469 89.3734 18.2469H90.2329V20.4691H80.977V18.2469H81.8723C82.5002 18.2469 82.9006 18.1646 83.0732 18C83.2536 17.8354 83.3443 17.428 83.3443 16.7778V7.19745C83.3443 6.53905 83.2536 6.13168 83.0732 5.97522C82.9006 5.81067 82.5002 5.72835 81.8723 5.72835H80.977V3.50608H91.6104C93.5811 3.50608 95.0445 3.85591 96.0024 4.55547C96.968 5.24684 97.4513 6.30452 97.4513 7.72831C97.4513 8.7242 97.133 9.55139 96.4973 10.2099C95.8616 10.8601 94.9384 11.3045 93.7297 11.5432C94.7657 11.7243 95.5037 12.0823 95.9436 12.6172C96.3834 13.1441 96.6034 13.9259 96.6034 14.963V16.6049C96.6034 17.3128 96.6545 17.7942 96.7558 18.0494C96.8581 18.2963 97.0385 18.4197 97.2979 18.4197C97.6037 18.4197 97.816 18.2345 97.9336 17.8642C98.059 17.4856 98.1217 16.786 98.1217 15.7654H99.7356C99.7356 15.8477 99.7395 15.9629 99.7472 16.1111C99.7549 16.2511 99.7588 16.3539 99.7588 16.4197C99.7588 17.9753 99.453 19.1234 98.8404 19.8642C98.2356 20.605 97.2902 20.9753 96.0024 20.9753C94.6442 20.9753 93.6477 20.6255 93.011 19.9259C92.3831 19.2264 92.0696 18.1275 92.0696 16.6296V15.0123C92.0696 14.0658 91.9239 13.4486 91.6335 13.1604C91.3509 12.8724 90.7586 12.7284 89.8557 12.7284H87.8772V16.7778ZM105.953 12C105.953 14.3128 106.259 16 106.871 17.0618C107.484 18.1235 108.457 18.6544 109.792 18.6544C111.118 18.6544 112.088 18.1235 112.7 17.0618C113.312 16 113.619 14.3128 113.619 12C113.619 9.68722 113.312 7.99997 112.7 6.93824C112.088 5.87651 111.118 5.34565 109.792 5.34565C108.457 5.34565 107.484 5.87651 106.871 6.93824C106.259 7.99997 105.953 9.68722 105.953 12ZM100.701 12C100.701 9.20156 101.506 7.00408 103.115 5.40734C104.732 3.80241 106.958 3 109.792 3C112.61 3 114.824 3.79827 116.433 5.395C118.05 6.99174 118.859 9.19337 118.859 12C118.859 14.7983 118.054 16.9959 116.444 18.5926C114.835 20.1811 112.618 20.9753 109.792 20.9753C106.958 20.9753 104.732 20.177 103.115 18.5802C101.506 16.9835 100.701 14.7901 100.701 12ZM133.719 13.9013H136.275C136.212 16.2387 135.576 18.0041 134.367 19.1976C133.158 20.3828 131.391 20.9753 129.068 20.9753C126.446 20.9753 124.354 20.1605 122.792 18.5309C121.238 16.9013 120.46 14.716 120.46 11.9753C120.46 10.6091 120.661 9.38685 121.061 8.30863C121.461 7.23042 122.078 6.25921 122.909 5.395C123.71 4.57196 124.59 3.96706 125.548 3.58022C126.512 3.19337 127.62 3 128.868 3C129.747 3 130.572 3.13572 131.34 3.40738C132.118 3.67073 132.864 4.08226 133.578 4.64194L134.061 3.29623H136.275V10.2099H133.908C133.814 8.72016 133.406 7.55962 132.683 6.72838C131.968 5.89704 131.019 5.48148 129.834 5.48148C128.538 5.48148 127.525 6.04935 126.795 7.18511C126.073 8.31268 125.712 9.90122 125.712 11.9505C125.712 14.0329 126.07 15.6379 126.783 16.7654C127.506 17.8848 128.53 18.4444 129.857 18.4444C130.987 18.4444 131.89 18.0453 132.565 17.2469C133.248 16.4403 133.633 15.3251 133.719 13.9013ZM137.876 20.4691V18.2469H138.771C139.399 18.2469 139.799 18.1646 139.972 18C140.152 17.8354 140.243 17.428 140.243 16.7778V7.19745C140.243 6.53905 140.152 6.13168 139.972 5.97522C139.799 5.81067 139.399 5.72835 138.771 5.72835H137.876V3.50608H146.731V5.72835H146.166C145.53 5.72835 145.122 5.81482 144.942 5.98766C144.761 6.15221 144.671 6.55554 144.671 7.19745V11.6667L150.076 6.7654C150.201 6.6502 150.292 6.5432 150.347 6.44439C150.41 6.33739 150.44 6.23453 150.44 6.13572C150.44 5.99585 150.366 5.893 150.217 5.82716C150.076 5.76132 149.852 5.72835 149.545 5.72835H148.416V3.50608H156.494V5.72835H155.716C155.128 5.72835 154.307 6.19752 153.255 7.13576L153.231 7.1481L150.44 9.7037L154.832 17.1605C155.069 17.5638 155.296 17.8477 155.515 18.0123C155.735 18.1687 155.999 18.2469 156.304 18.2469H157V20.4691H148.274V18.2469H148.968C149.369 18.2469 149.651 18.2099 149.816 18.1358C149.989 18.0535 150.076 17.9218 150.076 17.7407C150.076 17.6748 150.064 17.609 150.04 17.5432C150.017 17.4773 149.966 17.3745 149.887 17.2346L147.238 12.6296L144.671 14.9259V16.7778C144.671 17.4198 144.761 17.8272 144.942 18C145.122 18.1646 145.53 18.2469 146.166 18.2469H146.731V20.4691H137.876Z" fill="#FEFEFE"/>
<path d="M74.0118 36.6876V40H73V32H75.1539C75.5181 32 75.8265 32.014 76.0788 32.0419C76.3355 32.0658 76.5692 32.1056 76.7803 32.1614C77.3597 32.3129 77.8024 32.572 78.1086 32.9387C78.4149 33.3014 78.568 33.7559 78.568 34.3019C78.568 34.6248 78.5142 34.9138 78.4066 35.1689C78.2991 35.424 78.148 35.6452 77.9535 35.8326C77.759 36.0199 77.5252 36.1734 77.2521 36.293C76.9831 36.4126 76.683 36.5003 76.352 36.556V36.5799L79.0646 40H77.7921L75.2346 36.6876H74.0118ZM74.0118 32.879V35.8086H75.0112C75.3216 35.8086 75.5864 35.7987 75.8058 35.7788C76.0251 35.7589 76.2216 35.7229 76.3955 35.6712C76.7472 35.5675 77.0182 35.4021 77.2086 35.1749C77.3989 34.9477 77.4942 34.6507 77.4942 34.284C77.49 33.9412 77.3989 33.6662 77.221 33.4589C77.0431 33.2476 76.7968 33.0962 76.4823 33.0045C76.3333 32.9607 76.1555 32.9288 75.9485 32.9088C75.7416 32.8889 75.4788 32.879 75.1601 32.879H74.0118ZM81.5351 39.121H85.7931V40H80.5234V32H85.5634V32.879H81.5351V35.4619H85.1168V36.3408H81.5351V39.121ZM86.6999 40L90.0824 32H90.9578L94.3411 40H93.2419L92.2495 37.5904H88.7789L87.7856 40H86.6999ZM90.5112 33.2436C90.1425 34.2401 89.7891 35.145 89.4493 35.9581L89.1391 36.7115H91.8893L91.5791 35.9581C91.2392 35.129 90.8917 34.2242 90.5358 33.2436H90.5112ZM96.6311 32V39.121H100.685V40H95.62V32H96.6311ZM103.665 40H102.653V32.879H99.8779V32H106.439V32.879H103.665V40ZM110.977 36.7833V40H109.965V36.7833L106.942 32H108.047L110.455 35.8864H110.486L112.895 32H114L110.977 36.7833Z" fill="#FEFEFE"/>
<path fill-rule="evenodd" clip-rule="evenodd" d="M5.99873 15.568L5.50391 3.76739L6.42452 3.35547L5.99873 15.568Z" fill="url(#paint0_linear_1276_715)"/>
<path fill-rule="evenodd" clip-rule="evenodd" d="M6.93359 2.9482L8.02294 2.46875L7.67386 15.1674L6.93359 2.9482Z" fill="url(#paint1_linear_1276_715)"/>
<path fill-rule="evenodd" clip-rule="evenodd" d="M8.65625 2.15914L9.50008 1.67969L9.36579 14.3311L8.65625 2.15914Z" fill="url(#paint2_linear_1276_715)"/>
<path fill-rule="evenodd" clip-rule="evenodd" d="M10.3398 1.34292L11.2949 0.839844L10.9689 13.3022L10.3398 1.34292Z" fill="url(#paint3_linear_1276_715)"/>
<path fill-rule="evenodd" clip-rule="evenodd" d="M12.0547 0.502689L12.8449 0.046875L12.6569 12.4112L12.0547 0.502689Z" fill="url(#paint4_linear_1276_715)"/>
<path fill-rule="evenodd" clip-rule="evenodd" d="M13.582 0L14.5601 0.526722L14.0998 11.9559L13.582 0Z" fill="url(#paint5_linear_1276_715)"/>
<path fill-rule="evenodd" clip-rule="evenodd" d="M15.2695 0.890625L16.1939 1.41735L15.7605 18.1407L15.2695 0.890625Z" fill="url(#paint6_linear_1276_715)"/>
<path fill-rule="evenodd" clip-rule="evenodd" d="M16.7969 1.625L17.7021 2.12133L17.353 19.0472L16.7969 1.625Z" fill="url(#paint7_linear_1276_715)"/>
<path fill-rule="evenodd" clip-rule="evenodd" d="M18.5156 2.57031L19.3786 3.07677L18.9452 19.871L18.5156 2.57031Z" fill="url(#paint8_linear_1276_715)"/>
<path fill-rule="evenodd" clip-rule="evenodd" d="M19.9883 3.20312L20.9587 3.67582L20.4908 20.9461L19.9883 3.20312Z" fill="url(#paint9_linear_1276_715)"/>
<path fill-rule="evenodd" clip-rule="evenodd" d="M0 21.6779L0.736432 21.2188L0.34904 40.4946L0 21.6779Z" fill="url(#paint10_linear_1276_715)"/>
<path fill-rule="evenodd" clip-rule="evenodd" d="M1.58984 20.6964L2.49888 20.2305L2.23422 40.6408L1.58984 20.6964Z" fill="url(#paint11_linear_1276_715)"/>
<path fill-rule="evenodd" clip-rule="evenodd" d="M3.09766 19.8981L3.93003 19.3984L3.94922 40.4638L3.09766 19.8981Z" fill="url(#paint12_linear_1276_715)"/>
<path fill-rule="evenodd" clip-rule="evenodd" d="M4.79688 19.005L5.58698 18.5391L5.36074 40.3439L4.79688 19.005Z" fill="url(#paint13_linear_1276_715)"/>
<path fill-rule="evenodd" clip-rule="evenodd" d="M6.35547 18.0963L7.26834 17.7148L6.93079 41.0018L6.35547 18.0963Z" fill="url(#paint14_linear_1276_715)"/>
<path fill-rule="evenodd" clip-rule="evenodd" d="M8.01562 17.3362L8.848 16.8398L8.62934 40.8292L8.01562 17.3362Z" fill="url(#paint15_linear_1276_715)"/>
<path fill-rule="evenodd" clip-rule="evenodd" d="M9.49609 16.4854L10.5011 16.0195L10.2632 40.5153L9.49609 16.4854Z" fill="url(#paint16_linear_1276_715)"/>
<path fill-rule="evenodd" clip-rule="evenodd" d="M11.1992 15.6154L12.1658 15.2305L11.8245 40.6008L11.1992 15.6154Z" fill="url(#paint17_linear_1276_715)"/>
<path fill-rule="evenodd" clip-rule="evenodd" d="M12.8047 14.8958L13.894 14.4062L13.38 40.5362L12.8047 14.8958Z" fill="url(#paint18_linear_1276_715)"/>
<path fill-rule="evenodd" clip-rule="evenodd" d="M15.6523 20.7852L16.6343 21.2511L16.151 40.4223L15.6523 20.7852Z" fill="url(#paint19_linear_1276_715)"/>
<path fill-rule="evenodd" clip-rule="evenodd" d="M17.3906 21.6719L18.1002 21.9825L17.7474 40.573L17.3906 21.6719Z" fill="url(#paint20_linear_1276_715)"/>
<path fill-rule="evenodd" clip-rule="evenodd" d="M18.8008 22.4844L19.7712 22.9537L19.2419 40.5684L18.8008 22.4844Z" fill="url(#paint21_linear_1276_715)"/>
<path fill-rule="evenodd" clip-rule="evenodd" d="M20.332 23.2109L21.3369 23.7072L20.9533 40.0389L20.332 23.2109Z" fill="url(#paint22_linear_1276_715)"/>
<path fill-rule="evenodd" clip-rule="evenodd" d="M22.0664 24.1406L22.9946 24.5964L22.5152 40.5432L22.0664 24.1406Z" fill="url(#paint23_linear_1276_715)"/>
<path fill-rule="evenodd" clip-rule="evenodd" d="M23.625 24.8789L24.5762 25.3313L24.1006 40.6028L23.625 24.8789Z" fill="url(#paint24_linear_1276_715)"/>
<path fill-rule="evenodd" clip-rule="evenodd" d="M25.168 25.6172L26.0003 26.0696L25.7625 40.1931L25.168 25.6172Z" fill="url(#paint25_linear_1276_715)"/>
</g>
<defs>
<linearGradient id="paint0_linear_1276_715" x1="5.40864" y1="6.63615" x2="16.7214" y2="24.7761" gradientUnits="userSpaceOnUse">
<stop stop-color="#E8C986"/>
<stop offset="0.63" stop-color="#8D6637"/>
<stop offset="1" stop-color="#B38C50"/>
</linearGradient>
<linearGradient id="paint1_linear_1276_715" x1="6.92806" y1="5.6914" x2="18.2404" y2="23.8321" gradientUnits="userSpaceOnUse">
<stop stop-color="#E8C986"/>
<stop offset="0.63" stop-color="#8D6637"/>
<stop offset="1" stop-color="#B38C50"/>
</linearGradient>
<linearGradient id="paint2_linear_1276_715" x1="8.50853" y1="4.70914" x2="19.8205" y2="22.8508" gradientUnits="userSpaceOnUse">
<stop stop-color="#E8C986"/>
<stop offset="0.63" stop-color="#8D6637"/>
<stop offset="1" stop-color="#B38C50"/>
</linearGradient>
<linearGradient id="paint3_linear_1276_715" x1="10.2334" y1="3.6322" x2="21.5455" y2="21.7735" gradientUnits="userSpaceOnUse">
<stop stop-color="#E8C986"/>
<stop offset="0.63" stop-color="#8D6637"/>
<stop offset="1" stop-color="#B38C50"/>
</linearGradient>
<linearGradient id="paint4_linear_1276_715" x1="11.8503" y1="2.62155" x2="23.1631" y2="20.7616" gradientUnits="userSpaceOnUse">
<stop stop-color="#E8C986"/>
<stop offset="0.63" stop-color="#8D6637"/>
<stop offset="1" stop-color="#B38C50"/>
</linearGradient>
<linearGradient id="paint5_linear_1276_715" x1="12.9569" y1="1.93225" x2="24.2696" y2="20.0727" gradientUnits="userSpaceOnUse">
<stop stop-color="#E8C986"/>
<stop offset="0.63" stop-color="#8D6637"/>
<stop offset="1" stop-color="#B38C50"/>
</linearGradient>
<linearGradient id="paint6_linear_1276_715" x1="12.113" y1="2.46069" x2="23.4254" y2="20.6017" gradientUnits="userSpaceOnUse">
<stop stop-color="#E8C986"/>
<stop offset="0.63" stop-color="#8D6637"/>
<stop offset="1" stop-color="#B38C50"/>
</linearGradient>
<linearGradient id="paint7_linear_1276_715" x1="12.7477" y1="2.06143" x2="24.0602" y2="20.2022" gradientUnits="userSpaceOnUse">
<stop stop-color="#E8C986"/>
<stop offset="0.63" stop-color="#8D6637"/>
<stop offset="1" stop-color="#B38C50"/>
</linearGradient>
<linearGradient id="paint8_linear_1276_715" x1="13.3966" y1="1.66186" x2="24.709" y2="19.8027" gradientUnits="userSpaceOnUse">
<stop stop-color="#E8C986"/>
<stop offset="0.63" stop-color="#8D6637"/>
<stop offset="1" stop-color="#B38C50"/>
</linearGradient>
<linearGradient id="paint9_linear_1276_715" x1="14.0196" y1="1.26923" x2="25.3323" y2="19.4094" gradientUnits="userSpaceOnUse">
<stop stop-color="#E8C986"/>
<stop offset="0.63" stop-color="#8D6637"/>
<stop offset="1" stop-color="#B38C50"/>
</linearGradient>
<linearGradient id="paint10_linear_1276_715" x1="12.7755" y1="21.8098" x2="4.13148" y2="41.3797" gradientUnits="userSpaceOnUse">
<stop stop-color="#E0C07F"/>
<stop offset="0.58" stop-color="#AB834D"/>
<stop offset="1" stop-color="#E5C986"/>
</linearGradient>
<linearGradient id="paint11_linear_1276_715" x1="14.0412" y1="22.374" x2="5.39714" y2="41.944" gradientUnits="userSpaceOnUse">
<stop stop-color="#E0C07F"/>
<stop offset="0.58" stop-color="#AB834D"/>
<stop offset="1" stop-color="#E5C986"/>
</linearGradient>
<linearGradient id="paint12_linear_1276_715" x1="15.1692" y1="22.8721" x2="6.52555" y2="42.4427" gradientUnits="userSpaceOnUse">
<stop stop-color="#E0C07F"/>
<stop offset="0.58" stop-color="#AB834D"/>
<stop offset="1" stop-color="#E5C986"/>
</linearGradient>
<linearGradient id="paint13_linear_1276_715" x1="16.2409" y1="23.3443" x2="7.59615" y2="42.9136" gradientUnits="userSpaceOnUse">
<stop stop-color="#E0C07F"/>
<stop offset="0.58" stop-color="#AB834D"/>
<stop offset="1" stop-color="#E5C986"/>
</linearGradient>
<linearGradient id="paint14_linear_1276_715" x1="17.5011" y1="23.9031" x2="8.85701" y2="43.473" gradientUnits="userSpaceOnUse">
<stop stop-color="#E0C07F"/>
<stop offset="0.58" stop-color="#AB834D"/>
<stop offset="1" stop-color="#E5C986"/>
</linearGradient>
<linearGradient id="paint15_linear_1276_715" x1="18.6961" y1="24.4324" x2="10.0517" y2="44.0021" gradientUnits="userSpaceOnUse">
<stop stop-color="#E0C07F"/>
<stop offset="0.58" stop-color="#AB834D"/>
<stop offset="1" stop-color="#E5C986"/>
</linearGradient>
<linearGradient id="paint16_linear_1276_715" x1="19.7332" y1="24.8888" x2="11.0893" y2="44.4589" gradientUnits="userSpaceOnUse">
<stop stop-color="#E0C07F"/>
<stop offset="0.58" stop-color="#AB834D"/>
<stop offset="1" stop-color="#E5C986"/>
</linearGradient>
<linearGradient id="paint17_linear_1276_715" x1="20.9257" y1="25.4115" x2="12.2815" y2="44.9814" gradientUnits="userSpaceOnUse">
<stop stop-color="#E0C07F"/>
<stop offset="0.58" stop-color="#AB834D"/>
<stop offset="1" stop-color="#E5C986"/>
</linearGradient>
<linearGradient id="paint18_linear_1276_715" x1="22.0723" y1="25.9217" x2="13.4283" y2="45.4918" gradientUnits="userSpaceOnUse">
<stop stop-color="#E0C07F"/>
<stop offset="0.58" stop-color="#AB834D"/>
<stop offset="1" stop-color="#E5C986"/>
</linearGradient>
<linearGradient id="paint19_linear_1276_715" x1="28.7245" y1="28.5276" x2="19.0955" y2="40.4802" gradientUnits="userSpaceOnUse">
<stop stop-color="#E0C07F"/>
<stop offset="1" stop-color="#A1723B"/>
</linearGradient>
<linearGradient id="paint20_linear_1276_715" x1="30.0009" y1="29.5467" x2="20.372" y2="41.5005" gradientUnits="userSpaceOnUse">
<stop stop-color="#E0C07F"/>
<stop offset="1" stop-color="#A1723B"/>
</linearGradient>
<linearGradient id="paint21_linear_1276_715" x1="31.0799" y1="30.4162" x2="21.4508" y2="42.3688" gradientUnits="userSpaceOnUse">
<stop stop-color="#E0C07F"/>
<stop offset="1" stop-color="#A1723B"/>
</linearGradient>
<linearGradient id="paint22_linear_1276_715" x1="32.0718" y1="31.2152" x2="22.4427" y2="43.1682" gradientUnits="userSpaceOnUse">
<stop stop-color="#E0C07F"/>
<stop offset="1" stop-color="#A1723B"/>
</linearGradient>
<linearGradient id="paint23_linear_1276_715" x1="33.4484" y1="32.3277" x2="23.8195" y2="44.2811" gradientUnits="userSpaceOnUse">
<stop stop-color="#E0C07F"/>
<stop offset="1" stop-color="#A1723B"/>
</linearGradient>
<linearGradient id="paint24_linear_1276_715" x1="34.5992" y1="33.2461" x2="24.97" y2="45.1985" gradientUnits="userSpaceOnUse">
<stop stop-color="#E0C07F"/>
<stop offset="1" stop-color="#A1723B"/>
</linearGradient>
<linearGradient id="paint25_linear_1276_715" x1="35.6144" y1="34.0715" x2="25.9853" y2="46.0243" gradientUnits="userSpaceOnUse">
<stop stop-color="#E0C07F"/>
<stop offset="1" stop-color="#A1723B"/>
</linearGradient>
<clipPath id="clip0_1276_715">
<rect width="158" height="41" fill="white"/>
</clipPath>
</defs>
</svg>
