<svg width="187" height="66" viewBox="0 0 187 66" fill="none" xmlns="http://www.w3.org/2000/svg">
<rect width="187" height="66" fill="black"/>
<path d="M45.4761 14.2275H55.2295V16.4248H54.1797C53.5124 16.4248 53.0851 16.5103 52.8979 16.6812C52.7189 16.8439 52.6294 17.2427 52.6294 17.8774V28.8027H53.9478C55.2173 28.8027 56.0962 28.7417 56.5845 28.6196C57.0728 28.4976 57.4715 28.29 57.7808 27.9971C58.1307 27.6715 58.3993 27.2158 58.5864 26.6299C58.7817 26.0358 58.9201 25.2098 59.0015 24.1519H61.1987V31H45.4761V28.8027H46.4038C47.0549 28.8027 47.4699 28.7214 47.6489 28.5586C47.8361 28.3958 47.9297 27.993 47.9297 27.3501V17.8774C47.9297 17.2264 47.8361 16.8236 47.6489 16.6689C47.4699 16.5062 47.0549 16.4248 46.4038 16.4248H45.4761V14.2275ZM60.9546 16.3394V14.2275H70.4517V16.3516C70.3459 16.3434 70.2319 16.3394 70.1099 16.3394C69.9878 16.3312 69.821 16.3271 69.6094 16.3271C68.9258 16.3271 68.4701 16.4533 68.2422 16.7056C68.0143 16.9578 67.9004 17.6577 67.9004 18.8052V25.519C67.9004 26.7967 68.1201 27.7 68.5596 28.229C69.0072 28.758 69.7477 29.0225 70.7812 29.0225C72.0182 29.0225 72.9012 28.7702 73.4302 28.2656C73.9591 27.7611 74.2236 26.9147 74.2236 25.7266V18.9272C74.2236 17.7879 74.1056 17.0718 73.8696 16.7788C73.6418 16.4777 73.1698 16.3271 72.4536 16.3271C72.2827 16.3271 72.1484 16.3312 72.0508 16.3394C71.9613 16.3394 71.8799 16.3434 71.8066 16.3516V14.2275H79.2773V16.3516C78.6426 16.3516 78.1584 16.3841 77.8247 16.4492C77.491 16.5062 77.2673 16.6079 77.1533 16.7544C77.0801 16.8358 77.0272 17.0026 76.9946 17.2549C76.9702 17.5072 76.958 18.0728 76.958 18.9517V26.0439C76.958 27.8343 76.3599 29.1974 75.1636 30.1333C73.9673 31.061 72.2217 31.5249 69.9268 31.5249C67.8271 31.5249 66.1914 31.0651 65.0195 30.1455C63.8558 29.2178 63.2739 27.9198 63.2739 26.2515V18.8784C63.2739 17.8368 63.16 17.1532 62.9321 16.8276C62.7124 16.494 62.2933 16.3271 61.6748 16.3271C61.4958 16.3271 61.3534 16.3312 61.2476 16.3394C61.1418 16.3394 61.0441 16.3394 60.9546 16.3394ZM80.0952 31V28.8516H80.437C81.0229 28.8516 81.5072 28.7539 81.8896 28.5586C82.2721 28.3633 82.6709 28.0011 83.0859 27.4722L86.7603 22.8945L82.8418 17.6699C82.4919 17.1979 82.1338 16.8643 81.7676 16.6689C81.4095 16.4655 80.9863 16.3597 80.498 16.3516L80.4858 14.2275H89.3359V16.3516C89.2871 16.3516 89.2179 16.3475 89.1284 16.3394C89.0389 16.3312 88.9779 16.3271 88.9453 16.3271C88.571 16.3271 88.2821 16.376 88.0786 16.4736C87.8833 16.5713 87.7856 16.7137 87.7856 16.9009C87.7856 16.9985 87.806 17.1003 87.8467 17.2061C87.8955 17.3118 87.985 17.4583 88.1152 17.6455L89.812 20.0259L91.7896 17.6699C91.936 17.5072 92.0337 17.377 92.0825 17.2793C92.1395 17.1735 92.168 17.0636 92.168 16.9497C92.168 16.7544 92.05 16.6079 91.814 16.5103C91.5861 16.4045 91.2443 16.3516 90.7886 16.3516H90.6177V14.2275H97.9663V16.3516H97.8687C97.299 16.3516 96.8148 16.4492 96.416 16.6445C96.0173 16.8317 95.6266 17.1572 95.2441 17.6211L91.6919 21.9546L95.7202 27.3745C96.1515 27.9686 96.5299 28.3714 96.8555 28.583C97.181 28.7946 97.5594 28.9004 97.9907 28.9004C98.0884 28.9004 98.2471 28.8882 98.4668 28.8638C98.4993 28.8556 98.5238 28.8516 98.54 28.8516V31H89.165V28.8516H89.4458C89.9666 28.8516 90.3369 28.8027 90.5566 28.7051C90.7764 28.6074 90.8862 28.4487 90.8862 28.229C90.8862 28.0256 90.7723 27.7855 90.5444 27.5088C90.4793 27.4355 90.4264 27.3704 90.3857 27.3135L88.5913 24.8721L86.687 27.2524C86.4917 27.521 86.3574 27.7326 86.2842 27.8872C86.2191 28.0337 86.1865 28.1802 86.1865 28.3267C86.1865 28.5057 86.2842 28.644 86.4795 28.7417C86.6829 28.8312 86.9718 28.876 87.3462 28.876C87.4764 28.876 87.5741 28.876 87.6392 28.876C87.7124 28.8678 87.7775 28.8597 87.8345 28.8516L87.8467 31H80.0952ZM106.511 21.1489H108.281C109.551 21.1489 110.413 20.9862 110.869 20.6606C111.325 20.327 111.553 19.7329 111.553 18.8784C111.553 17.9832 111.325 17.3525 110.869 16.9863C110.413 16.612 109.616 16.4248 108.477 16.4248H106.511V21.1489ZM106.511 27.3501C106.511 27.9849 106.601 28.3877 106.78 28.5586C106.967 28.7214 107.394 28.8027 108.062 28.8027H108.953V31H99.3579V28.8027H100.286C100.937 28.8027 101.352 28.7214 101.531 28.5586C101.718 28.3958 101.812 27.993 101.812 27.3501V17.8774C101.812 17.2264 101.718 16.8236 101.531 16.6689C101.352 16.5062 100.937 16.4248 100.286 16.4248H99.3579V14.2275H110.381C112.424 14.2275 113.941 14.5734 114.934 15.2651C115.935 15.9487 116.436 16.9945 116.436 18.4023C116.436 19.387 116.106 20.2049 115.447 20.856C114.788 21.4989 113.831 21.9383 112.578 22.1743C113.652 22.3534 114.417 22.7074 114.873 23.2363C115.329 23.7572 115.557 24.5303 115.557 25.5557V27.1792C115.557 27.8791 115.61 28.3551 115.715 28.6074C115.821 28.8516 116.008 28.9736 116.277 28.9736C116.594 28.9736 116.814 28.7905 116.936 28.4243C117.066 28.05 117.131 27.3582 117.131 26.3491H118.804C118.804 26.4305 118.808 26.5444 118.816 26.6909C118.824 26.8293 118.828 26.931 118.828 26.9961C118.828 28.5342 118.511 29.6694 117.876 30.4019C117.249 31.1343 116.269 31.5005 114.934 31.5005C113.526 31.5005 112.493 31.1546 111.833 30.4629C111.182 29.7712 110.857 28.6847 110.857 27.2036V25.6045C110.857 24.6686 110.706 24.0583 110.405 23.7734C110.112 23.4886 109.498 23.3462 108.562 23.3462H106.511V27.3501ZM125.249 22.626C125.249 24.9128 125.566 26.5811 126.201 27.6309C126.836 28.6807 127.845 29.2056 129.229 29.2056C130.604 29.2056 131.609 28.6807 132.244 27.6309C132.878 26.5811 133.196 24.9128 133.196 22.626C133.196 20.3392 132.878 18.6709 132.244 17.6211C131.609 16.5713 130.604 16.0464 129.229 16.0464C127.845 16.0464 126.836 16.5713 126.201 17.6211C125.566 18.6709 125.249 20.3392 125.249 22.626ZM119.805 22.626C119.805 19.859 120.639 17.6862 122.307 16.1074C123.984 14.5205 126.291 13.7271 129.229 13.7271C132.15 13.7271 134.445 14.5164 136.113 16.0952C137.79 17.674 138.628 19.8509 138.628 22.626C138.628 25.3929 137.794 27.5658 136.125 29.1445C134.457 30.7152 132.158 31.5005 129.229 31.5005C126.291 31.5005 123.984 30.7111 122.307 29.1323C120.639 27.5535 119.805 25.3848 119.805 22.626ZM154.033 24.5059H156.682C156.617 26.8171 155.958 28.5627 154.705 29.7427C153.451 30.9146 151.62 31.5005 149.211 31.5005C146.493 31.5005 144.325 30.6948 142.705 29.0835C141.094 27.4722 140.288 25.3115 140.288 22.6016C140.288 21.2507 140.496 20.0422 140.911 18.9761C141.326 17.91 141.965 16.9497 142.827 16.0952C143.657 15.2814 144.569 14.6833 145.562 14.3008C146.562 13.9183 147.71 13.7271 149.004 13.7271C149.915 13.7271 150.77 13.8613 151.567 14.1299C152.373 14.3903 153.146 14.7972 153.887 15.3506L154.387 14.02H156.682V20.856H154.229C154.131 19.383 153.708 18.2355 152.959 17.4136C152.218 16.5916 151.234 16.1807 150.005 16.1807C148.662 16.1807 147.612 16.7422 146.855 17.8652C146.107 18.9801 145.732 20.5508 145.732 22.5771C145.732 24.6361 146.103 26.223 146.843 27.3379C147.592 28.4447 148.654 28.998 150.029 28.998C151.201 28.998 152.137 28.6034 152.837 27.814C153.545 27.0164 153.944 25.9137 154.033 24.5059ZM158.342 31V28.8027H159.27C159.921 28.8027 160.336 28.7214 160.515 28.5586C160.702 28.3958 160.796 27.993 160.796 27.3501V17.8774C160.796 17.2264 160.702 16.8236 160.515 16.6689C160.336 16.5062 159.921 16.4248 159.27 16.4248H158.342V14.2275H167.522V16.4248H166.936C166.277 16.4248 165.854 16.5103 165.667 16.6812C165.479 16.8439 165.386 17.2427 165.386 17.8774V22.2964L170.989 17.4502C171.119 17.3363 171.213 17.2305 171.27 17.1328C171.335 17.027 171.367 16.9253 171.367 16.8276C171.367 16.6893 171.29 16.5876 171.135 16.5225C170.989 16.4574 170.757 16.4248 170.439 16.4248H169.268V14.2275H177.642V16.4248H176.836C176.226 16.4248 175.375 16.8887 174.285 17.8164L174.26 17.8286L171.367 20.3555L175.92 27.7285C176.165 28.1273 176.401 28.408 176.628 28.5708C176.856 28.7254 177.129 28.8027 177.446 28.8027H178.167V31H169.121V28.8027H169.841C170.256 28.8027 170.549 28.7661 170.72 28.6929C170.899 28.6115 170.989 28.4813 170.989 28.3022C170.989 28.2371 170.977 28.172 170.952 28.1069C170.928 28.0418 170.875 27.9401 170.793 27.8018L168.047 23.2485L165.386 25.519V27.3501C165.386 27.9849 165.479 28.3877 165.667 28.5586C165.854 28.7214 166.277 28.8027 166.936 28.8027H167.522V31H158.342Z" fill="#FEFEFE"/>
<path d="M89.439 50.9424V55H88.2451V45.2002H90.7866C91.2163 45.2002 91.5801 45.2173 91.8779 45.2515C92.1807 45.2808 92.4565 45.3296 92.7056 45.3979C93.3892 45.5835 93.9116 45.9009 94.2729 46.3501C94.6343 46.7944 94.8149 47.3511 94.8149 48.02C94.8149 48.4155 94.7515 48.7695 94.6245 49.082C94.4976 49.3945 94.3193 49.6655 94.0898 49.895C93.8604 50.1245 93.5845 50.3125 93.2622 50.459C92.9448 50.6055 92.5908 50.7129 92.2002 50.7812V50.8105L95.4009 55H93.8994L90.8818 50.9424H89.439ZM89.439 46.2769V49.8657H90.6182C90.9844 49.8657 91.2969 49.8535 91.5557 49.8291C91.8145 49.8047 92.0464 49.7607 92.2515 49.6973C92.6665 49.5703 92.9863 49.3677 93.2109 49.0894C93.4355 48.811 93.5479 48.4473 93.5479 47.998C93.543 47.5781 93.4355 47.2412 93.2256 46.9873C93.0156 46.7285 92.7251 46.543 92.354 46.4307C92.1782 46.377 91.9683 46.3379 91.7241 46.3135C91.48 46.2891 91.1699 46.2769 90.7939 46.2769H89.439ZM98.3159 53.9233H103.34V55H97.1221V45.2002H103.069V46.2769H98.3159V49.4409H102.542V50.5176H98.3159V53.9233ZM104.41 55L108.401 45.2002H109.434L113.426 55H112.129L110.958 52.0483H106.863L105.691 55H104.41ZM108.907 46.7236C108.472 47.9443 108.055 49.0527 107.654 50.0488L107.288 50.9717H110.533L110.167 50.0488C109.766 49.0332 109.356 47.9248 108.936 46.7236H108.907ZM116.128 45.2002V53.9233H120.911V55H114.935V45.2002H116.128ZM124.427 55H123.233V46.2769H119.959V45.2002H127.701V46.2769H124.427V55ZM133.055 51.0596V55H131.861V51.0596L128.294 45.2002H129.598L132.439 49.9609H132.476L135.318 45.2002H136.622L133.055 51.0596Z" fill="#FEFEFE"/>
<path fill-rule="evenodd" clip-rule="evenodd" d="M14.6039 26.3885L13.9775 9.41854L15.1429 8.82617L14.6039 26.3885Z" fill="url(#paint0_linear_1255_717)"/>
<path fill-rule="evenodd" clip-rule="evenodd" d="M15.7832 8.23831L17.1622 7.54883L16.7203 25.8103L15.7832 8.23831Z" fill="url(#paint1_linear_1255_717)"/>
<path fill-rule="evenodd" clip-rule="evenodd" d="M17.959 7.10354L19.0272 6.41406L18.8572 24.6076L17.959 7.10354Z" fill="url(#paint2_linear_1255_717)"/>
<path fill-rule="evenodd" clip-rule="evenodd" d="M20.0957 5.92854L21.3047 5.20508L20.892 23.1267L20.0957 5.92854Z" fill="url(#paint3_linear_1255_717)"/>
<path fill-rule="evenodd" clip-rule="evenodd" d="M22.2656 4.72385L23.2659 4.06836L23.0279 21.8491L22.2656 4.72385Z" fill="url(#paint4_linear_1255_717)"/>
<path fill-rule="evenodd" clip-rule="evenodd" d="M24.1982 4L25.4364 4.75746L24.8537 21.1933L24.1982 4Z" fill="url(#paint5_linear_1255_717)"/>
<path fill-rule="evenodd" clip-rule="evenodd" d="M26.335 5.27734L27.5051 6.0348L26.9565 30.084L26.335 5.27734Z" fill="url(#paint6_linear_1255_717)"/>
<path fill-rule="evenodd" clip-rule="evenodd" d="M28.2715 6.33594L29.4174 7.04969L28.9755 31.3902L28.2715 6.33594Z" fill="url(#paint7_linear_1255_717)"/>
<path fill-rule="evenodd" clip-rule="evenodd" d="M30.4375 7.69531L31.53 8.42363L30.9813 32.5748L30.4375 7.69531Z" fill="url(#paint8_linear_1255_717)"/>
<path fill-rule="evenodd" clip-rule="evenodd" d="M32.3066 8.60742L33.5351 9.28719L32.9427 34.123L32.3066 8.60742Z" fill="url(#paint9_linear_1255_717)"/>
<path fill-rule="evenodd" clip-rule="evenodd" d="M7 35.1779L7.93225 34.5176L7.44185 62.2375L7 35.1779Z" fill="url(#paint10_linear_1255_717)"/>
<path fill-rule="evenodd" clip-rule="evenodd" d="M9.01465 33.7599L10.1654 33.0898L9.83037 62.4412L9.01465 33.7599Z" fill="url(#paint11_linear_1255_717)"/>
<path fill-rule="evenodd" clip-rule="evenodd" d="M10.9277 32.6131L11.9814 31.8945L12.0057 62.1879L10.9277 32.6131Z" fill="url(#paint12_linear_1255_717)"/>
<path fill-rule="evenodd" clip-rule="evenodd" d="M13.0791 31.3322L14.0793 30.6621L13.7929 62.0188L13.0791 31.3322Z" fill="url(#paint13_linear_1255_717)"/>
<path fill-rule="evenodd" clip-rule="evenodd" d="M15.0508 30.0213L16.2064 29.4727L15.7791 62.9609L15.0508 30.0213Z" fill="url(#paint14_linear_1255_717)"/>
<path fill-rule="evenodd" clip-rule="evenodd" d="M17.1572 28.9286L18.2109 28.2148L17.9341 62.713L17.1572 28.9286Z" fill="url(#paint15_linear_1255_717)"/>
<path fill-rule="evenodd" clip-rule="evenodd" d="M19.0273 27.7052L20.2995 27.0352L19.9984 62.2617L19.0273 27.7052Z" fill="url(#paint16_linear_1255_717)"/>
<path fill-rule="evenodd" clip-rule="evenodd" d="M21.1777 26.4559L22.4013 25.9023L21.9692 62.3864L21.1777 26.4559Z" fill="url(#paint17_linear_1255_717)"/>
<path fill-rule="evenodd" clip-rule="evenodd" d="M23.2129 25.4169L24.5918 24.7129L23.9412 62.2895L23.2129 25.4169Z" fill="url(#paint18_linear_1255_717)"/>
<path fill-rule="evenodd" clip-rule="evenodd" d="M26.8203 33.8809L28.0633 34.5509L27.4515 62.1203L26.8203 33.8809Z" fill="url(#paint19_linear_1255_717)"/>
<path fill-rule="evenodd" clip-rule="evenodd" d="M29.0146 35.1621L29.9129 35.6088L29.4662 62.3431L29.0146 35.1621Z" fill="url(#paint20_linear_1255_717)"/>
<path fill-rule="evenodd" clip-rule="evenodd" d="M30.8066 36.3379L32.0351 37.0128L31.365 62.3439L30.8066 36.3379Z" fill="url(#paint21_linear_1255_717)"/>
<path fill-rule="evenodd" clip-rule="evenodd" d="M32.7393 37.377L34.0114 38.0907L33.5258 61.5767L32.7393 37.377Z" fill="url(#paint22_linear_1255_717)"/>
<path fill-rule="evenodd" clip-rule="evenodd" d="M34.9385 38.7109L36.1135 39.3664L35.5066 62.2989L34.9385 38.7109Z" fill="url(#paint23_linear_1255_717)"/>
<path fill-rule="evenodd" clip-rule="evenodd" d="M36.9102 39.7852L38.1143 40.4358L37.5122 62.3971L36.9102 39.7852Z" fill="url(#paint24_linear_1255_717)"/>
<path fill-rule="evenodd" clip-rule="evenodd" d="M38.8662 40.8379L39.9199 41.4885L39.6188 61.799L38.8662 40.8379Z" fill="url(#paint25_linear_1255_717)"/>
<defs>
<linearGradient id="paint0_linear_1255_717" x1="13.8569" y1="13.544" x2="30.9477" y2="37.668" gradientUnits="userSpaceOnUse">
<stop stop-color="#E8C986"/>
<stop offset="0.63" stop-color="#8D6637"/>
<stop offset="1" stop-color="#B38C50"/>
</linearGradient>
<linearGradient id="paint1_linear_1255_717" x1="15.7762" y1="12.1832" x2="32.8665" y2="36.3084" gradientUnits="userSpaceOnUse">
<stop stop-color="#E8C986"/>
<stop offset="0.63" stop-color="#8D6637"/>
<stop offset="1" stop-color="#B38C50"/>
</linearGradient>
<linearGradient id="paint2_linear_1255_717" x1="17.772" y1="10.7706" x2="34.8619" y2="34.8973" gradientUnits="userSpaceOnUse">
<stop stop-color="#E8C986"/>
<stop offset="0.63" stop-color="#8D6637"/>
<stop offset="1" stop-color="#B38C50"/>
</linearGradient>
<linearGradient id="paint3_linear_1255_717" x1="19.9609" y1="9.22066" x2="37.0509" y2="33.3468" gradientUnits="userSpaceOnUse">
<stop stop-color="#E8C986"/>
<stop offset="0.63" stop-color="#8D6637"/>
<stop offset="1" stop-color="#B38C50"/>
</linearGradient>
<linearGradient id="paint4_linear_1255_717" x1="22.0069" y1="7.77091" x2="39.0977" y2="31.8951" gradientUnits="userSpaceOnUse">
<stop stop-color="#E8C986"/>
<stop offset="0.63" stop-color="#8D6637"/>
<stop offset="1" stop-color="#B38C50"/>
</linearGradient>
<linearGradient id="paint5_linear_1255_717" x1="23.4068" y1="6.7787" x2="40.4975" y2="30.9035" gradientUnits="userSpaceOnUse">
<stop stop-color="#E8C986"/>
<stop offset="0.63" stop-color="#8D6637"/>
<stop offset="1" stop-color="#B38C50"/>
</linearGradient>
<linearGradient id="paint6_linear_1255_717" x1="22.3391" y1="7.53519" x2="39.4295" y2="31.6609" gradientUnits="userSpaceOnUse">
<stop stop-color="#E8C986"/>
<stop offset="0.63" stop-color="#8D6637"/>
<stop offset="1" stop-color="#B38C50"/>
</linearGradient>
<linearGradient id="paint7_linear_1255_717" x1="23.1457" y1="6.96356" x2="40.2361" y2="31.0889" gradientUnits="userSpaceOnUse">
<stop stop-color="#E8C986"/>
<stop offset="0.63" stop-color="#8D6637"/>
<stop offset="1" stop-color="#B38C50"/>
</linearGradient>
<linearGradient id="paint8_linear_1255_717" x1="23.9573" y1="6.3889" x2="41.0477" y2="30.5143" gradientUnits="userSpaceOnUse">
<stop stop-color="#E8C986"/>
<stop offset="0.63" stop-color="#8D6637"/>
<stop offset="1" stop-color="#B38C50"/>
</linearGradient>
<linearGradient id="paint9_linear_1255_717" x1="24.7508" y1="5.82635" x2="41.8415" y2="29.9507" gradientUnits="userSpaceOnUse">
<stop stop-color="#E8C986"/>
<stop offset="0.63" stop-color="#8D6637"/>
<stop offset="1" stop-color="#B38C50"/>
</linearGradient>
<linearGradient id="paint10_linear_1255_717" x1="23.1725" y1="35.3675" x2="9.69064" y2="62.2362" gradientUnits="userSpaceOnUse">
<stop stop-color="#E0C07F"/>
<stop offset="0.58" stop-color="#AB834D"/>
<stop offset="1" stop-color="#E5C986"/>
</linearGradient>
<linearGradient id="paint11_linear_1255_717" x1="24.7769" y1="36.1724" x2="11.2949" y2="63.0411" gradientUnits="userSpaceOnUse">
<stop stop-color="#E0C07F"/>
<stop offset="0.58" stop-color="#AB834D"/>
<stop offset="1" stop-color="#E5C986"/>
</linearGradient>
<linearGradient id="paint12_linear_1255_717" x1="26.2091" y1="36.8898" x2="12.7277" y2="63.7595" gradientUnits="userSpaceOnUse">
<stop stop-color="#E0C07F"/>
<stop offset="0.58" stop-color="#AB834D"/>
<stop offset="1" stop-color="#E5C986"/>
</linearGradient>
<linearGradient id="paint13_linear_1255_717" x1="27.5661" y1="37.5724" x2="14.0832" y2="64.4398" gradientUnits="userSpaceOnUse">
<stop stop-color="#E0C07F"/>
<stop offset="0.58" stop-color="#AB834D"/>
<stop offset="1" stop-color="#E5C986"/>
</linearGradient>
<linearGradient id="paint14_linear_1255_717" x1="29.1601" y1="38.3718" x2="15.6781" y2="65.2403" gradientUnits="userSpaceOnUse">
<stop stop-color="#E0C07F"/>
<stop offset="0.58" stop-color="#AB834D"/>
<stop offset="1" stop-color="#E5C986"/>
</linearGradient>
<linearGradient id="paint15_linear_1255_717" x1="30.6776" y1="39.1334" x2="17.1953" y2="66.0016" gradientUnits="userSpaceOnUse">
<stop stop-color="#E0C07F"/>
<stop offset="0.58" stop-color="#AB834D"/>
<stop offset="1" stop-color="#E5C986"/>
</linearGradient>
<linearGradient id="paint16_linear_1255_717" x1="31.9864" y1="39.7898" x2="18.5047" y2="66.6586" gradientUnits="userSpaceOnUse">
<stop stop-color="#E0C07F"/>
<stop offset="0.58" stop-color="#AB834D"/>
<stop offset="1" stop-color="#E5C986"/>
</linearGradient>
<linearGradient id="paint17_linear_1255_717" x1="33.4904" y1="40.5433" x2="20.0083" y2="67.4118" gradientUnits="userSpaceOnUse">
<stop stop-color="#E0C07F"/>
<stop offset="0.58" stop-color="#AB834D"/>
<stop offset="1" stop-color="#E5C986"/>
</linearGradient>
<linearGradient id="paint18_linear_1255_717" x1="34.9448" y1="41.2729" x2="21.4629" y2="68.1417" gradientUnits="userSpaceOnUse">
<stop stop-color="#E0C07F"/>
<stop offset="0.58" stop-color="#AB834D"/>
<stop offset="1" stop-color="#E5C986"/>
</linearGradient>
<linearGradient id="paint19_linear_1255_717" x1="43.3684" y1="45.0151" x2="29.2519" y2="60.4401" gradientUnits="userSpaceOnUse">
<stop stop-color="#E0C07F"/>
<stop offset="1" stop-color="#A1723B"/>
</linearGradient>
<linearGradient id="paint20_linear_1255_717" x1="44.978" y1="46.4866" x2="30.8615" y2="61.9134" gradientUnits="userSpaceOnUse">
<stop stop-color="#E0C07F"/>
<stop offset="1" stop-color="#A1723B"/>
</linearGradient>
<linearGradient id="paint21_linear_1255_717" x1="46.3508" y1="47.7443" x2="32.2343" y2="63.1694" gradientUnits="userSpaceOnUse">
<stop stop-color="#E0C07F"/>
<stop offset="1" stop-color="#A1723B"/>
</linearGradient>
<linearGradient id="paint22_linear_1255_717" x1="47.6007" y1="48.8876" x2="33.4841" y2="64.3132" gradientUnits="userSpaceOnUse">
<stop stop-color="#E0C07F"/>
<stop offset="1" stop-color="#A1723B"/>
</linearGradient>
<linearGradient id="paint23_linear_1255_717" x1="49.347" y1="50.4844" x2="35.2306" y2="65.9106" gradientUnits="userSpaceOnUse">
<stop stop-color="#E0C07F"/>
<stop offset="1" stop-color="#A1723B"/>
</linearGradient>
<linearGradient id="paint24_linear_1255_717" x1="50.8024" y1="51.8178" x2="36.6858" y2="67.2424" gradientUnits="userSpaceOnUse">
<stop stop-color="#E0C07F"/>
<stop offset="1" stop-color="#A1723B"/>
</linearGradient>
<linearGradient id="paint25_linear_1255_717" x1="52.0904" y1="52.9958" x2="37.9738" y2="68.421" gradientUnits="userSpaceOnUse">
<stop stop-color="#E0C07F"/>
<stop offset="1" stop-color="#A1723B"/>
</linearGradient>
</defs>
</svg>
